<?xml version="1.0" encoding="UTF-8" standalone="no"?>
<!-- Created with Inkscape (http://www.inkscape.org/) -->

<svg
   width="46.535927px"
   height="40.994366px"
   viewBox="0 0 46.535927 40.994366"
   version="1.1"
   id="svg1"
   xml:space="preserve"
   xmlns:inkscape="http://www.inkscape.org/namespaces/inkscape"
   xmlns:sodipodi="http://sodipodi.sourceforge.net/DTD/sodipodi-0.dtd"
   xmlns="http://www.w3.org/2000/svg"
   xmlns:svg="http://www.w3.org/2000/svg"><sodipodi:namedview
     id="namedview1"
     pagecolor="#ffffff"
     bordercolor="#000000"
     borderopacity="0.25"
     inkscape:showpageshadow="2"
     inkscape:pageopacity="0.0"
     inkscape:pagecheckerboard="0"
     inkscape:deskcolor="#d1d1d1"
     inkscape:document-units="mm"
     inkscape:zoom="0.44631734"
     inkscape:cx="396.57881"
     inkscape:cy="561.25984"
     inkscape:window-width="1366"
     inkscape:window-height="697"
     inkscape:window-x="-8"
     inkscape:window-y="-8"
     inkscape:window-maximized="1"
     inkscape:current-layer="layer1" /><defs
     id="defs1" /><g
     inkscape:label="Capa 1"
     inkscape:groupmode="layer"
     id="layer1"
     transform="translate(-84.179636,-181.01461)"><path
       style="fill:#ffffff"
       d="m 105.44144,217.9468 c -2.81288,-0.27899 -4.59834,-0.75946 -6.805551,-1.83138 -1.994534,-0.96863 -3.320144,-1.92214 -4.980352,-3.58235 -1.660209,-1.6602 -2.613715,-2.98581 -3.582348,-4.98035 -1.290722,-2.65775 -1.834015,-5.04855 -1.834015,-8.07069 0,-3.08598 0.565285,-5.51277 1.919736,-8.24151 2.531895,-5.10089 7.321353,-8.77463 12.89683,-9.89248 1.3211,-0.26487 2.0717,-0.33342 3.65084,-0.33342 3.02215,0 5.41294,0.54329 8.0707,1.83401 1.84619,0.89659 3.24187,1.87158 4.71025,3.29046 1.66545,1.60932 2.78799,3.12962 3.76672,5.10143 0.97715,1.9686 1.51096,3.72242 1.82635,6.00039 0.15569,1.12448 0.11814,3.73012 -0.0714,4.95214 -0.60354,3.89201 -2.27821,7.29019 -4.96442,10.07364 -1.60258,1.6606 -3.12446,2.78391 -5.1021,3.76588 -1.82781,0.90758 -3.72454,1.498 -5.70584,1.77616 -0.79426,0.1115 -3.18603,0.19851 -3.79543,0.13807 z m 1.72738,-1.17812 c 0.10707,-0.042 0.0361,-0.0903 -0.32532,-0.22136 -0.25423,-0.0922 -0.77129,-0.3103 -1.14903,-0.48468 -0.66488,-0.30695 -0.79522,-0.33641 -4.08461,-0.92346 -1.868797,-0.33353 -3.411209,-0.59336 -3.427581,-0.57742 -0.05375,0.0523 1.893421,0.94641 2.632351,1.20868 1.26798,0.45005 2.5728,0.75596 3.90387,0.91526 1.08421,0.12975 2.23209,0.16863 2.45032,0.083 z m -0.70445,-3.83428 c 1.09105,-1.49563 1.17493,-1.63254 1.08524,-1.7712 -0.0535,-0.0827 -0.90361,-1.54918 -1.88921,-3.25893 -0.98561,-1.70975 -1.82855,-3.14824 -1.87322,-3.19663 -0.0447,-0.0484 -0.60064,-0.17183 -1.23549,-0.27429 -1.62927,-0.26295 -2.849197,-0.50448 -4.255958,-0.84262 -0.680259,-0.16352 -1.245063,-0.26522 -1.279822,-0.23046 -0.121055,0.12105 -3.177648,4.95602 -3.177648,5.02645 0,0.0989 1.026188,1.85712 1.46947,2.51775 0.374148,0.5576 1.214492,1.69267 1.509167,2.03847 0.159984,0.18774 0.315037,0.22169 4.178461,0.91493 2.20678,0.39598 4.07402,0.7149 4.14944,0.7087 0.0895,-0.007 0.54801,-0.5745 1.31957,-1.63217 z m 12.37185,-1.10446 c 2.12108,-2.07893 3.62444,-4.57205 4.46338,-7.40194 0.25896,-0.87353 0.50864,-2.05767 0.57795,-2.74101 0.0242,-0.23857 0.06,-0.51973 0.0797,-0.6248 0.0331,-0.17742 -0.0279,-0.14908 -0.85579,0.39762 -0.49031,0.32376 -1.30357,0.79478 -1.80726,1.04672 l -0.91579,0.45807 -2.06483,3.85507 -2.06483,3.85506 0.18134,0.67515 c 0.0997,0.37133 0.23111,0.96794 0.29195,1.32579 0.0608,0.35786 0.1251,0.69223 0.14282,0.74306 0.0464,0.133 0.99337,-0.63022 1.97138,-1.58879 z m -6.30998,-1.35614 c 0.67595,-0.0801 1.56374,-0.20309 1.97288,-0.27321 l 0.74388,-0.1275 1.99652,-3.72314 1.99652,-3.72314 -0.42699,-0.83031 c -0.53877,-1.04766 -1.22073,-2.19905 -2.10948,-3.56154 -0.62293,-0.95498 -0.71676,-1.06634 -0.89843,-1.06634 -0.11157,0 -1.93874,0.17893 -4.06038,0.39762 -2.12163,0.21869 -3.89187,0.39761 -3.93385,0.39761 -0.042,0 -0.3601,0.54492 -0.70692,1.21093 -0.34682,0.66601 -1.03714,1.97244 -1.53404,2.90318 -0.74319,1.39203 -0.89209,1.72084 -0.83931,1.85333 0.0353,0.0886 0.92626,1.6492 1.97994,3.46805 l 1.91579,3.30699 1.33744,-0.0434 c 0.73559,-0.0239 1.89048,-0.10898 2.56643,-0.18912 z m -17.847408,-5.65979 1.599657,-2.50214 -0.132707,-0.71005 c -0.246171,-1.31716 -0.425186,-2.94268 -0.495511,-4.49941 -0.04965,-1.09901 -0.09718,-1.57383 -0.163815,-1.63649 -0.08965,-0.0843 -4.01592,-2.41805 -4.068075,-2.41805 -0.04833,0 -1.100991,1.63089 -1.353197,2.09652 -0.553167,1.02126 -0.828105,4.02965 -0.571505,6.25343 0.207229,1.79591 0.730078,3.73665 1.116493,4.14426 0.508033,0.5359 2.246531,1.84504 2.389557,1.79941 0.0437,-0.0139 0.799292,-1.15131 1.679103,-2.52748 z m 17.305208,-8.44142 c 2.04772,-0.20402 3.7672,-0.3936 3.82105,-0.42127 0.11582,-0.0595 1.17769,-2.68149 1.60374,-3.95996 l 0.29818,-0.89476 -0.32811,-0.37988 c -0.18046,-0.20893 -1.42746,-1.6161 -2.77112,-3.12705 l -2.44301,-2.74717 -0.68679,-0.0243 c -0.37774,-0.0134 -1.22357,0.0131 -1.87964,0.0588 -1.13871,0.0793 -3.76789,0.34323 -3.79756,0.38117 -0.008,0.01 -0.51849,1.53379 -1.13498,3.38638 l -1.12088,3.36835 0.58679,0.60932 c 0.6957,0.7224 3.61158,4.01744 3.6494,4.12393 0.0145,0.0407 0.12816,0.0567 0.25303,0.0357 0.12472,-0.0211 1.90218,-0.20524 3.9499,-0.40927 z m -14.726903,-2.49804 c 1.138679,-0.68638 3.363533,-1.81264 4.533463,-2.2949 l 0.75908,-0.31291 1.02473,-3.03138 c 0.5636,-1.66726 1.02718,-3.09694 1.03019,-3.17706 0.009,-0.2372 -1.56034,-1.17302 -2.84023,-1.69379 l -0.70167,-0.28549 -0.79555,0.31972 c -2.194554,0.88198 -4.161151,2.18532 -5.840068,3.87044 -0.51098,0.51286 -0.665063,0.72795 -1.00023,1.39626 -0.495107,0.98721 -1.253897,2.89626 -1.273088,3.20297 -0.01427,0.22806 0.0051,0.24181 2.006359,1.42781 1.111422,0.65864 2.031803,1.19752 2.04529,1.19752 0.01349,0 0.486763,-0.27863 1.051724,-0.61919 z m 24.915333,-2.21086 c -1.30322,-2.59469 -3.47911,-5.03281 -5.95935,-6.6776 -0.93015,-0.61684 -2.86601,-1.58027 -2.94027,-1.46331 -0.0317,0.0499 -0.0577,0.23712 -0.0578,0.41605 l -1.6e-4,0.32532 2.73217,3.07491 c 2.38629,2.68565 2.7685,3.0858 3.01919,3.16091 0.4165,0.12479 2.36704,1.10698 2.95677,1.48888 0.27757,0.17975 0.51548,0.316 0.5287,0.30278 0.0132,-0.0132 -0.11246,-0.29579 -0.27929,-0.62794 z"
       id="path1" /><ellipse
       style="fill:#60ff25;fill-opacity:1;stroke-width:0.309999"
       id="path2"
       cx="107.44759"
       cy="219.93413"
       rx="23.267963"
       ry="2.0748503" /></g></svg>
